<svg width="191" height="27" viewBox="0 0 191 27" fill="none" xmlns="http://www.w3.org/2000/svg">
<path d="M44.1172 20H46.627V8.02734H50.9434V5.9082H39.8008V8.02734H44.1172V20ZM54.175 20H56.6945V5.9082H54.175V20ZM60.7367 20H63.0023V9.98047H64.223L61.7035 6.29883L67.0941 20H68.8129L74.2133 6.29883L71.6938 9.98047H72.9047V20H75.1703V5.9082H72.2797L68.0316 16.7383H67.8852L63.6273 5.9082H60.7367V20ZM79.232 20H88.3531V17.8809H81.7516V13.8477H87.9918V11.8359H81.7516V8.02734H88.3531V5.9082H79.232V20ZM95.5594 20H98.0691V8.02734H102.386V5.9082H91.243V8.02734H95.5594V20ZM111.135 20.3223C112.508 20.3223 113.693 20.0228 114.689 19.4238C115.686 18.8249 116.454 17.9753 116.994 16.875C117.535 15.7682 117.805 14.4629 117.805 12.959V12.9395C117.805 11.429 117.535 10.1237 116.994 9.02344C116.454 7.92318 115.682 7.07682 114.68 6.48438C113.684 5.88542 112.502 5.58594 111.135 5.58594C109.774 5.58594 108.592 5.88542 107.59 6.48438C106.594 7.07682 105.822 7.92318 105.275 9.02344C104.735 10.1237 104.465 11.429 104.465 12.9395V12.959C104.465 14.4629 104.735 15.7682 105.275 16.875C105.816 17.9753 106.584 18.8249 107.58 19.4238C108.576 20.0228 109.761 20.3223 111.135 20.3223ZM111.135 18.1445C110.288 18.1445 109.559 17.9329 108.947 17.5098C108.335 17.0801 107.86 16.4779 107.521 15.7031C107.189 14.9219 107.023 14.0072 107.023 12.959V12.9395C107.023 11.8783 107.193 10.9635 107.531 10.1953C107.87 9.42057 108.345 8.82161 108.957 8.39844C109.576 7.97526 110.301 7.76367 111.135 7.76367C111.975 7.76367 112.701 7.97526 113.312 8.39844C113.931 8.82161 114.406 9.42057 114.738 10.1953C115.07 10.9701 115.236 11.8848 115.236 12.9395V12.959C115.236 14.0072 115.07 14.9219 114.738 15.7031C114.406 16.4779 113.931 17.0801 113.312 17.5098C112.701 17.9329 111.975 18.1445 111.135 18.1445ZM126.183 20.3223C127.316 20.3223 128.292 20.1432 129.113 19.7852C129.939 19.4271 130.574 18.9193 131.017 18.2617C131.466 17.5977 131.691 16.8132 131.691 15.9082V15.8984C131.691 14.8242 131.359 13.9746 130.695 13.3496C130.03 12.7181 128.956 12.2461 127.472 11.9336L125.958 11.6113C125.086 11.429 124.454 11.1784 124.064 10.8594C123.68 10.5404 123.488 10.1335 123.488 9.63867V9.62891C123.488 9.23177 123.601 8.88997 123.829 8.60352C124.057 8.31706 124.37 8.0957 124.767 7.93945C125.17 7.77669 125.636 7.69531 126.163 7.69531C126.697 7.69531 127.166 7.77669 127.57 7.93945C127.973 8.0957 128.295 8.31706 128.536 8.60352C128.784 8.88346 128.937 9.21224 128.995 9.58984L129.015 9.70703H131.427L131.417 9.57031C131.359 8.80208 131.111 8.11849 130.675 7.51953C130.239 6.92057 129.64 6.44857 128.878 6.10352C128.116 5.75846 127.218 5.58594 126.183 5.58594C125.167 5.58594 124.265 5.76172 123.478 6.11328C122.696 6.46484 122.081 6.95638 121.632 7.58789C121.189 8.21289 120.965 8.94531 120.958 9.78516V9.79492C120.958 10.8431 121.29 11.7025 121.954 12.373C122.618 13.0436 123.667 13.5286 125.099 13.8281L126.613 14.1406C127.524 14.3359 128.175 14.5931 128.566 14.9121C128.963 15.2311 129.161 15.6478 129.161 16.1621V16.1719C129.161 16.569 129.038 16.9238 128.79 17.2363C128.549 17.5423 128.211 17.7832 127.775 17.959C127.345 18.1283 126.84 18.2129 126.261 18.2129C125.668 18.2129 125.141 18.1315 124.679 17.9688C124.223 17.806 123.855 17.5781 123.575 17.2852C123.302 16.9922 123.142 16.6471 123.097 16.25L123.087 16.1426H120.646L120.655 16.2793C120.714 17.0996 120.974 17.8125 121.437 18.418C121.905 19.0234 122.54 19.4922 123.341 19.8242C124.148 20.1562 125.096 20.3223 126.183 20.3223ZM135.108 20H137.627V13.8867H144.483V20H146.993V5.9082H144.483V11.7676H137.627V5.9082H135.108V20ZM150.009 20H152.656L156.377 8.49609H157.119V5.9082H155.029L150.009 20ZM152.539 16.3574H160.322L159.668 14.4141H153.203L152.539 16.3574ZM160.234 20H162.871L157.861 5.9082H156.513V8.49609L160.234 20ZM165.887 20H168.407V14.6973H171.054C171.08 14.6973 171.102 14.6973 171.122 14.6973C171.148 14.6973 171.171 14.6973 171.19 14.6973L173.954 20H176.825L173.749 14.3164C174.582 14.0169 175.233 13.5091 175.702 12.793C176.171 12.0703 176.405 11.2435 176.405 10.3125V10.293C176.405 9.38802 176.21 8.61003 175.819 7.95898C175.435 7.30794 174.882 6.80339 174.159 6.44531C173.436 6.08724 172.57 5.9082 171.561 5.9082H165.887V20ZM168.407 12.7539V7.93945H171.249C172.05 7.93945 172.678 8.1543 173.134 8.58398C173.596 9.01367 173.827 9.59961 173.827 10.3418V10.3613C173.827 11.1165 173.606 11.7057 173.163 12.1289C172.72 12.5456 172.102 12.7539 171.307 12.7539H168.407ZM180.027 20H189.148V17.8809H182.547V13.8477H188.787V11.8359H182.547V8.02734H189.148V5.9082H180.027V20Z" fill="white"/>
<path d="M22.5 0C21.3065 0 20.1619 0.474106 19.318 1.31802C18.4741 2.16193 18 3.30653 18 4.5C18.002 4.81631 18.0374 5.13153 18.1055 5.44043L7.88818 10.5491C7.46678 10.0639 6.94636 9.67464 6.36193 9.40744C5.7775 9.14024 5.14262 9.00131 4.5 9C3.30653 9 2.16193 9.47411 1.31802 10.318C0.474106 11.1619 0 12.3065 0 13.5C0 14.6935 0.474106 15.8381 1.31802 16.682C2.16193 17.5259 3.30653 18 4.5 18C5.14282 17.9993 5.77802 17.8608 6.36284 17.594C6.94766 17.3272 7.46853 16.9382 7.89038 16.4531L18.1011 21.5596C18.0344 21.8686 18.0006 22.1838 18 22.5C18 23.6935 18.4741 24.8381 19.318 25.682C20.1619 26.5259 21.3065 27 22.5 27C23.6935 27 24.8381 26.5259 25.682 25.682C26.5259 24.8381 27 23.6935 27 22.5C27 21.3065 26.5259 20.1619 25.682 19.318C24.8381 18.4741 23.6935 18 22.5 18C21.8572 18.0007 21.222 18.1392 20.6372 18.406C20.0523 18.6728 19.5315 19.0618 19.1096 19.5469L8.89893 14.4404C8.96556 14.1314 8.99944 13.8162 9 13.5C8.99784 13.1844 8.96249 12.8699 8.89453 12.5618L19.1118 7.45312C19.5334 7.93788 20.0539 8.32674 20.6384 8.59356C21.2228 8.86038 21.8576 8.99896 22.5 9C23.6935 9 24.8381 8.52589 25.682 7.68198C26.5259 6.83807 27 5.69347 27 4.5C27 3.30653 26.5259 2.16193 25.682 1.31802C24.8381 0.474106 23.6935 0 22.5 0Z" fill="white"/>
</svg>
