<svg width="27" height="27" viewBox="0 0 27 27" fill="none" xmlns="http://www.w3.org/2000/svg">
<path d="M22.5 0C21.3065 0 20.1619 0.474106 19.318 1.31802C18.4741 2.16193 18 3.30653 18 4.5C18.002 4.81631 18.0374 5.13153 18.1055 5.44043L7.88818 10.5491C7.46678 10.0639 6.94636 9.67464 6.36193 9.40744C5.7775 9.14024 5.14261 9.00131 4.5 9C3.30653 9 2.16193 9.47411 1.31802 10.318C0.474106 11.1619 0 12.3065 0 13.5C0 14.6935 0.474106 15.8381 1.31802 16.682C2.16193 17.5259 3.30653 18 4.5 18C5.14282 17.9993 5.77802 17.8608 6.36284 17.594C6.94766 17.3272 7.46853 16.9382 7.89038 16.4531L18.1011 21.5596C18.0344 21.8686 18.0006 22.1838 18 22.5C18 23.6935 18.4741 24.8381 19.318 25.682C20.1619 26.5259 21.3065 27 22.5 27C23.6935 27 24.8381 26.5259 25.682 25.682C26.5259 24.8381 27 23.6935 27 22.5C27 21.3065 26.5259 20.1619 25.682 19.318C24.8381 18.4741 23.6935 18 22.5 18C21.8572 18.0007 21.222 18.1392 20.6372 18.406C20.0523 18.6728 19.5315 19.0618 19.1096 19.5469L8.89893 14.4404C8.96556 14.1314 8.99944 13.8162 9 13.5C8.99784 13.1844 8.96249 12.8699 8.89453 12.5618L19.1118 7.45312C19.5334 7.93788 20.0539 8.32674 20.6384 8.59356C21.2228 8.86038 21.8576 8.99896 22.5 9C23.6935 9 24.8381 8.52589 25.682 7.68198C26.5259 6.83807 27 5.69347 27 4.5C27 3.30653 26.5259 2.16193 25.682 1.31802C24.8381 0.474106 23.6935 0 22.5 0Z" fill="white"/>
</svg>
